#!OML:ASF Y:\EmotionMaleHayes\Project 1\Capture day 1\Session 1\Male1.ASF
:FULLY-SPECIFIED
:DEGREES
592
root 27.301 16.2426 0.259928 310.46 76.2498 312.846
lowerback 7.69432 4.65889 9.14525
upperback 1.69634 7.03518 1.59908
thorax -1.63684 3.51639 -3.99909
lowerneck -23.0489 0.292646 3.19997
upperneck 20.1911 -0.457615 -0.78129
head 10.2482 -0.0306057 -0.870121
rclavicle -4.56211e-014 -7.95139e-016
rhumerus -8.09147 11.7227 -77.6481
rradius 51.6062
rwrist -9.11146
rhand -13.8872 -32.1248
rfingers 7.12502
rthumb 12.2379 -61.7467
lclavicle -4.56211e-014 -7.95139e-016
lhumerus -52.5473 12.8779 68.3194
lradius 15.3815
lwrist -37.0677
lhand -0.182571 -22.5336
lfingers 7.12502
lthumb 25.4155 5.79216
rfemur 25.0633 3.28679 31.3554
rtibia 12.3299
rfoot -24.4223 3.8754
rtoes -0.442382
lfemur -23.4227 5.57938 -0.603043
ltibia 11.1771
lfoot -9.82355 8.34388
ltoes -2.84431
593
root 27.519 16.2041 0.245848 312.489 76.2556 314.785
lowerback 7.5198 4.78818 8.6373
upperback 1.58747 7.14463 1.47195
thorax -1.68478 3.5643 -3.85071
lowerneck -22.5094 0.462539 3.02054
upperneck 19.6674 -0.24806 -0.340819
head 9.96909 0.099545 -0.649255
rclavicle -9.93923e-017 1.11319e-014
rhumerus -8.62854 11.8733 -77.7804
rradius 52.2507
rwrist -9.5327
rhand -14.6758 -31.7013
rfingers 7.12502
rthumb 11.4774 -61.3671
lclavicle -9.93923e-017 1.11319e-014
lhumerus -52.4938 13.0563 68.0161
lradius 15.1528
lwrist -37.821
lhand 0.341808 -22.2893
lfingers 7.12502
lthumb 25.9177 5.96406
rfemur 25.0845 4.13599 31.2256
rtibia 13.6468
rfoot -24.2563 3.55243
rtoes -1.526
lfemur -23.7383 5.75534 -1.18957
ltibia 13.2268
lfoot -9.75929 8.11755
ltoes 1.58494
594
root 27.7484 16.1829 0.224211 311.793 76.5954 314.401
lowerback 7.64327 4.66853 8.47368
upperback 1.62591 6.98002 1.37202
thorax -1.74068 3.4814 -3.86673
lowerneck -23.0126 0.311803 3.03307
upperneck 20.1411 -0.460603 -0.424413
head 10.2256 -0.000723496 -0.715435
rclavicle 1.48095e-014 3.85642e-014
rhumerus -9.15459 11.9137 -77.9158
rradius 52.8595
rwrist -9.95926
rhand -15.47 -31.7388
rfingers 7.12502
rthumb 10.7114 -61.4458
lclavicle 1.48095e-014 3.85642e-014
lhumerus -52.3158 13.2656 67.7035
lradius 14.9424
lwrist -38.6223
lhand 1.0191 -21.9896
lfingers 7.12502
lthumb 26.5661 6.16721
rfemur 25.7518 4.46428 31.2756
rtibia 14.6112
rfoot -23.8643 2.78558
rtoes -3.57445
lfemur -23.6015 5.43757 -1.76448
ltibia 14.767
lfoot -8.20891 8.00245
ltoes 1.72261
595
root 27.9773 16.1582 0.204255 313.005 76.9721 315.756
lowerback 7.55311 4.69292 7.89301
upperback 1.61225 6.94891 1.19689
thorax -1.75561 3.4651 -3.72278
lowerneck -22.9266 0.32393 3.06851
upperneck 20.0821 -0.472525 -0.34261
head 10.1891 0.00629232 -0.693439
rclavicle 1.58531e-014 5.88403e-014
rhumerus -9.71722 11.8763 -78.0897
rradius 53.379
rwrist -10.1568
rhand -15.6195 -31.9494
rfingers 7.12502
rthumb 10.5672 -61.6637
lclavicle 1.58531e-014 5.88403e-014
lhumerus -52.1436 13.4163 67.4666
lradius 14.8896
lwrist -39.3844
lhand 1.62662 -21.7684
lfingers 7.12502
lthumb 27.1475 6.29911
rfemur 26.0168 5.13154 31.0717
rtibia 15.9874
rfoot -23.5206 2.16771
rtoes -4.33434
lfemur -23.46 5.31241 -2.53564
ltibia 15.5715
lfoot -6.13653 8.62768
ltoes 7.32861
596
root 28.2068 16.1333 0.179439 315.95 77.5269 318.593
lowerback 7.12841 4.75739 6.91998
upperback 1.54302 6.91055 0.931795
thorax -1.67833 3.4473 -3.4268
lowerneck -22.9701 0.286158 3.16298
upperneck 20.2359 -0.540096 -0.416209
head 10.2507 -0.0235917 -0.74609
rclavicle -4.09993e-014 -6.36111e-015
rhumerus -10.3354 11.9955 -78.342
rradius 53.7899
rwrist -10.2819
rhand -15.4078 -32.1388
rfingers 7.12502
rthumb 10.7714 -61.8426
lclavicle -4.09993e-014 -6.36111e-015
lhumerus -51.8835 13.6197 67.3292
lradius 14.7707
lwrist -39.8716
lhand 1.88242 -21.7129
lfingers 7.12502
lthumb 27.3921 6.31609
rfemur 26.0452 5.72356 30.2627
rtibia 17.2811
rfoot -22.8023 1.86545
rtoes -5.39614
lfemur -23.46 5.33652 -3.71269
ltibia 15.8398
lfoot -4.08621 9.58365
ltoes 4.86763
597
root 28.4362 16.118 0.151333 317.942 77.9556 320.469
lowerback 6.8181 4.7805 6.30298
upperback 1.42888 6.86459 0.696637
thorax -1.67271 3.42147 -3.30604
lowerneck -22.488 0.398066 3.08989
upperneck 19.9082 -0.389996 -0.206249
head 10.0497 0.0613606 -0.634573
rclavicle -4.17448e-015 -1.74931e-014
rhumerus -11.2273 11.9533 -78.7188
rradius 54.2839
rwrist -10.4849
rhand -15.2643 -32.4396
rfingers 7.12502
rthumb 10.9099 -62.1362
lclavicle -4.17448e-015 -1.74931e-014
lhumerus -51.5239 14.0359 66.9483
lradius 14.4778
lwrist -40.7733
lhand 2.21938 -21.5381
lfingers 7.12502
lthumb 27.7144 6.43949
rfemur 25.911 6.16751 29.7256
rtibia 18.8522
rfoot -21.8768 1.49506
rtoes -6.66641
lfemur -23.4614 5.40247 -4.57902
ltibia 16.126
lfoot -2.45595 10.6506
ltoes 1.41849
598
root 28.6729 16.1116 0.122273 319.594 78.7231 322.14
lowerback 6.6318 4.69161 5.59839
upperback 1.35712 6.67401 0.394381
thorax -1.70667 3.32437 -3.20763
lowerneck -22.3687 0.505106 3.25269
upperneck 19.8273 -0.287168 -0.221439
head 10.0012 0.118573 -0.65089
rclavicle 2.19657e-014 7.95139e-015
rhumerus -12.2499 11.7783 -79.162
rradius 54.8527
rwrist -10.5271
rhand -15.3715 -32.2966
rfingers 7.12502
rthumb 10.8064 -61.9986
lclavicle 2.19657e-014 7.95139e-015
lhumerus -51.1472 14.7217 66.2844
lradius 14.1691
lwrist -42.3158
lhand 1.56774 -22.052
lfingers 7.12502
lthumb 27.0911 6.02425
rfemur 25.8325 6.2935 28.9493
rtibia 20.5218
rfoot -20.8642 1.11607
rtoes -7.72472
lfemur -23.5097 5.29047 -5.77287
ltibia 17.0531
lfoot -1.47249 10.7244
ltoes -1.10845
599
root 28.9074 16.1113 0.0968505 321.996 79.6401 324.544
lowerback 6.40565 4.56478 4.64376
upperback 1.28397 6.41692 0.0750388
thorax -1.74863 3.1954 -2.98168
lowerneck -23.4533 0.112379 2.95824
upperneck 20.7511 -0.827886 -0.0269667
head 10.5236 -0.112587 -0.620411
rclavicle 5.1684e-015 -5.56597e-015
rhumerus -13.3378 11.7164 -79.6428
rradius 55.3514
rwrist -10.4527
rhand -15.5451 -31.863
rfingers 7.12502
rthumb 10.639 -61.5737
lclavicle 5.1684e-015 -5.56597e-015
lhumerus -50.7303 15.1821 65.9573
lradius 14.0017
lwrist -43.2726
lhand 1.41871 -22.0256
lfingers 7.12502
lthumb 26.9485 6.07275
rfemur 25.5121 6.27097 27.8909
rtibia 22.4314
rfoot -19.5402 0.898378
rtoes -8.28291
lfemur -23.9136 5.35425 -7.24824
ltibia 18.9436
lfoot -0.800568 9.48338
ltoes -0.797963
600
root 29.1283 16.1141 0.0778572 325.244 80.116 327.747
lowerback 6.19256 4.58023 3.76788
upperback 1.20293 6.36276 -0.167028
thorax -1.78607 3.16844 -2.73199
lowerneck -23.136 0.0893443 2.64935
upperneck 20.5343 -0.847233 0.410058
head 10.3909 -0.0940876 -0.41436
rclavicle -2.20154e-014 -2.38542e-015
rhumerus -14.5163 11.7005 -80.1024
rradius 55.7196
rwrist -10.3354
rhand -15.5474 -31.4533
rfingers 7.12502
rthumb 10.6367 -61.1641
lclavicle -2.20154e-014 -2.38542e-015
lhumerus -50.1471 15.3402 66.0445
lradius 13.9355
lwrist -43.5207
lhand 1.17144 -21.7234
lfingers 7.12502
lthumb 26.7119 6.41131
rfemur 24.7301 6.40598 26.9708
rtibia 24.8123
rfoot -17.8497 0.849182
rtoes -7.59685
lfemur -24.4303 5.75412 -8.3656
ltibia 21.1439
lfoot -0.651453 8.10777
ltoes -0.460677
601
root 29.3482 16.118 0.0580189 330.42 80.6045 332.987
lowerback 6.00137 4.65564 2.6892
upperback 1.23119 6.37935 -0.507175
thorax -1.72814 3.18279 -2.47094
lowerneck -23.0263 0.042953 2.32429
upperneck 20.3589 -0.910193 0.876637
head 10.3114 -0.0928161 -0.203367
rclavicle 4.12478e-014 -7.95139e-015
rhumerus -15.5702 11.6505 -80.5263
rradius 55.9305
rwrist -10.2122
rhand -15.5302 -31.0742
rfingers 7.12502
rthumb 10.6533 -60.7842
lclavicle 4.12478e-014 -7.95139e-015
lhumerus -49.371 15.6012 66.1206
lradius 13.8939
lwrist -43.7891
lhand 0.729881 -21.7134
lfingers 7.12502
lthumb 26.2893 6.48505
rfemur 23.9141 6.41504 25.5494
rtibia 27.3045
rfoot -15.8599 1.01737
rtoes -5.03441
lfemur -24.4389 5.99089 -9.81948
ltibia 22.6276
lfoot -1.32913 7.80827
ltoes -2.29642
602
root 29.5719 16.1234 0.0326416 336.985 81.345 339.835
lowerback 6.00523 4.63313 1.4672
upperback 1.32153 6.26655 -0.974555
thorax -1.72221 3.13379 -2.26754
lowerneck -23.4951 -0.162968 2.16327
upperneck 20.6973 -1.21319 1.08504
head 10.5203 -0.210219 -0.149794
rclavicle 3.37934e-015 -5.56597e-015
rhumerus -16.659 11.5629 -81.0524
rradius 56.1324
rwrist -10.2028
rhand -15.5032 -30.9773
rfingers 7.12502
rthumb 10.6794 -60.6859
lclavicle 3.37934e-015 -5.56597e-015
lhumerus -48.4932 15.4128 66.5463
lradius 13.9867
lwrist -43.4424
lhand 0.297043 -21.8026
lfingers 7.12502
lthumb 25.8749 6.45701
rfemur 23.3415 6.09105 23.6664
rtibia 29.7349
rfoot -13.407 1.16826
rtoes -0.891251
lfemur -23.8849 6.04819 -11.7513
ltibia 23.4972
lfoot -1.87942 8.19152
ltoes -4.93736
603
root 29.7886 16.1297 0.00503976 341.938 81.9388 345.172
lowerback 6.17744 4.5009 0.628015
upperback 1.42136 6.03733 -1.33243
thorax -1.77356 3.02495 -2.16816
lowerneck -22.9443 -0.0142899 2.0643
upperneck 20.1868 -1.01733 1.36885
head 10.2389 -0.103288 -0.00136342
rclavicle -2.10215e-014 0
rhumerus -17.864 11.601 -81.6658
rradius 56.4719
rwrist -10.3324
rhand -15.5322 -31.0468
rfingers 7.12502
rthumb 10.6514 -60.7569
lclavicle -2.10215e-014 0
lhumerus -47.5796 14.8075 67.4114
lradius 14.2258
lwrist -42.3835
lhand -0.58789 -21.9432
lfingers 7.12502
lthumb 25.0272 6.43725
rfemur 22.6976 5.6689 22.2206
rtibia 32.3159
rfoot -10.5873 1.12477
rtoes 3.7811
lfemur -23.3011 6.25231 -13.2565
ltibia 24.4985
lfoot -1.89697 8.04748
ltoes -6.0656
604
root 30.0016 16.1384 -0.0180426 346.212 82.3451 349.882
lowerback 6.43944 4.38426 -0.0627368
upperback 1.52153 5.83769 -1.60449
thorax -1.86384 2.93018 -2.07091
lowerneck -23.0056 -0.0928762 2.29971
upperneck 20.2831 -1.13587 1.06335
head 10.2806 -0.175782 -0.167114
rclavicle -1.799e-014 1.19271e-014
rhumerus -19.081 11.7738 -82.2667
rradius 56.7504
rwrist -10.594
rhand -15.6068 -31.2596
rfingers 7.12502
rthumb 10.5795 -60.9733
lclavicle -1.799e-014 1.19271e-014
lhumerus -46.7006 14.5051 68.0494
lradius 14.4629
lwrist -41.6241
lhand -1.72162 -22.2207
lfingers 7.12502
lthumb 23.9404 6.30674
rfemur 21.9135 5.38856 21.1074
rtibia 35.0639
rfoot -7.7611 0.838804
rtoes 9.05233
lfemur -22.6948 6.38085 -14.4027
ltibia 25.577
lfoot -2.1853 7.22733
ltoes -6.1211
605
root 30.2161 16.1485 -0.0410876 351.993 82.7894 356.198
lowerback 6.8333 4.30285 -0.861974
upperback 1.61625 5.67239 -1.92844
thorax -2.03405 2.85368 -1.97997
lowerneck -23.3208 -0.1333 2.34299
upperneck 20.7491 -1.22402 1.07055
head 10.5068 -0.20093 -0.185715
rclavicle 2.96686e-014 -3.18055e-015
rhumerus -20.3393 11.8242 -82.8512
rradius 56.8793
rwrist -10.8613
rhand -15.5499 -31.7702
rfingers 7.12502
rthumb 10.6343 -61.4811
lclavicle 2.96686e-014 -3.18055e-015
lhumerus -45.7435 14.1012 68.6819
lradius 14.6334
lwrist -40.8806
lhand -2.59129 -22.3754
lfingers 7.12502
lthumb 23.1062 6.25906
rfemur 21.2577 5.03118 19.7745
rtibia 37.7045
rfoot -4.96721 0.255592
rtoes 13.4166
lfemur -21.7989 6.07482 -15.7103
ltibia 26.3348
lfoot -2.83868 6.65216
ltoes -4.22178
606
root 30.4278 16.1594 -0.0715687 358.943 83.2355 363.631
lowerback 7.13827 4.18281 -1.61074
upperback 1.73056 5.45729 -2.25679
thorax -2.12745 2.75382 -1.90666
lowerneck -22.8482 -0.0526618 2.07748
upperneck 20.3918 -1.09593 1.4669
head 10.2965 -0.121066 0.0200457
rclavicle -1.78906e-015 -2.38542e-015
rhumerus -21.5927 11.8757 -83.4031
rradius 56.9489
rwrist -11.0792
rhand -15.3931 -32.0524
rfingers 7.12502
rthumb 10.7856 -61.7555
lclavicle -1.78906e-015 -2.38542e-015
lhumerus -44.6657 13.0938 69.8758
lradius 14.9051
lwrist -39.3917
lhand -3.60151 -22.4216
lfingers 7.12502
lthumb 22.1366 6.3311
rfemur 20.6059 4.52073 18.2643
rtibia 40.1859
rfoot -2.6287 -0.20626
rtoes 15.1771
lfemur -20.7687 5.53438 -17.1868
ltibia 26.7277
lfoot -3.61499 6.6706
ltoes -1.26054
